<?xml version="1.0" encoding="UTF-8"?>
<svg width="736px" height="115px" viewBox="0 0 736 115" version="1.1" xmlns="http://www.w3.org/2000/svg" xmlns:xlink="http://www.w3.org/1999/xlink">
    <!-- Generator: Sketch 51.3 (57544) - http://www.bohemiancoding.com/sketch -->
    <title>Hubstaff_Blog_fullcolor</title>
    <desc>Created with Sketch.</desc>
    <defs></defs>
    <g id="Page-1" stroke="none" stroke-width="1" fill="none" fill-rule="evenodd">
        <g id="Hubstaff_Blog_fullcolor" fill-rule="nonzero">
            <g id="Group">
                <polygon id="Shape" fill="#253F53" points="185.377 24.986 199.997 24.986 199.997 89.93 185.377 89.93 185.377 62.378 160.824 62.378 160.824 89.93 146.206 89.93 146.206 24.986 160.824 24.986 160.824 49.82 185.377 49.82"></polygon>
                <path d="M256.131,88.244 C253.756,88.932 250.695,89.57 246.946,90.164 C243.198,90.758 239.261,91.057 235.137,91.057 C230.952,91.057 227.468,90.494 224.69,89.369 C221.909,88.244 219.707,86.666 218.083,84.635 C216.458,82.606 215.302,80.184 214.615,77.373 C213.927,74.56 213.585,71.469 213.585,68.094 L213.585,40.637 L227.548,40.637 L227.548,66.408 C227.548,70.906 228.141,74.156 229.329,76.154 C230.514,78.154 232.733,79.152 235.982,79.152 C236.981,79.152 238.044,79.105 239.169,79.013 C240.293,78.917 241.292,78.81 242.167,78.683 L242.167,40.637 L256.131,40.637 L256.131,88.244 Z" id="Shape" fill="#253F53"></path>
                <path d="M315.075,65.283 C315.075,69.219 314.497,72.779 313.341,75.967 C312.184,79.155 310.514,81.871 308.327,84.119 C306.139,86.369 303.455,88.101 300.267,89.32 C297.08,90.539 293.456,91.148 289.396,91.148 C287.708,91.148 285.943,91.068 284.101,90.914 C282.258,90.756 280.447,90.555 278.666,90.305 C276.885,90.055 275.183,89.758 273.558,89.414 C271.933,89.072 270.496,88.711 269.247,88.336 L269.247,25.123 L283.21,22.874 L283.21,41.761 C284.771,41.074 286.398,40.542 288.084,40.167 C289.771,39.793 291.582,39.605 293.519,39.605 C297.017,39.605 300.109,40.214 302.796,41.433 C305.482,42.651 307.734,44.385 309.544,46.633 C311.357,48.883 312.732,51.586 313.667,54.74 C314.605,57.896 315.075,61.41 315.075,65.283 M300.83,64.908 C300.83,55.911 297.517,51.413 290.896,51.413 C289.458,51.413 288.038,51.601 286.631,51.975 C285.226,52.35 284.085,52.818 283.21,53.381 L283.21,78.777 C283.898,78.904 284.771,79.009 285.834,79.105 C286.896,79.199 288.051,79.246 289.302,79.246 C293.113,79.246 295.988,77.933 297.924,75.308 C299.859,72.688 300.83,69.218 300.83,64.908" id="Shape" fill="#253F53"></path>
                <path d="M340.002,79.902 C342.565,79.902 344.374,79.652 345.44,79.152 C346.502,78.652 347.032,77.683 347.032,76.248 C347.032,75.123 346.344,74.141 344.969,73.297 C343.595,72.453 341.502,71.5 338.694,70.44 C336.506,69.627 334.523,68.788 332.744,67.911 C330.963,67.038 329.447,65.987 328.198,64.77 C326.947,63.549 325.976,62.098 325.293,60.415 C324.605,58.727 324.263,56.697 324.263,54.323 C324.263,49.7 325.981,46.045 329.417,43.358 C332.853,40.672 337.57,39.328 343.566,39.328 C346.565,39.328 349.436,39.595 352.185,40.125 C354.934,40.657 357.123,41.235 358.748,41.859 L356.31,52.729 C354.685,52.167 352.921,51.668 351.015,51.23 C349.112,50.794 346.969,50.574 344.596,50.574 C340.223,50.574 338.035,51.793 338.035,54.229 C338.035,54.791 338.129,55.292 338.316,55.728 C338.504,56.166 338.879,56.588 339.441,56.993 C340.004,57.399 340.764,57.84 341.736,58.309 C342.704,58.784 343.939,59.299 345.436,59.87 C348.499,61.005 351.028,62.122 353.029,63.224 C355.028,64.328 356.602,65.517 357.759,66.793 C358.913,68.071 359.726,69.49 360.197,71.049 C360.666,72.607 360.9,74.414 360.9,76.472 C360.9,81.334 359.072,85.013 355.419,87.506 C351.764,89.996 346.593,91.246 339.908,91.246 C335.535,91.246 331.892,90.871 328.991,90.121 C326.086,89.371 324.071,88.748 322.946,88.246 L325.289,76.907 C327.663,77.844 330.1,78.578 332.599,79.108 C335.097,79.637 337.565,79.902 340.002,79.902" id="Shape" fill="#253F53"></path>
                <path d="M370.831,25.124 L384.796,22.874 L384.796,40.637 L401.569,40.637 L401.569,52.257 L384.796,52.257 L384.796,69.593 C384.796,72.532 385.311,74.872 386.341,76.622 C387.372,78.372 389.448,79.245 392.573,79.245 C394.072,79.245 395.618,79.103 397.212,78.823 C398.806,78.542 400.258,78.152 401.569,77.652 L403.538,88.521 C401.85,89.209 399.975,89.801 397.914,90.301 C395.851,90.8 393.322,91.051 390.323,91.051 C386.51,91.051 383.356,90.533 380.858,89.504 C378.359,88.474 376.36,87.035 374.861,85.191 C373.361,83.349 372.314,81.116 371.719,78.493 C371.124,75.868 370.827,72.964 370.827,69.775 L370.831,25.124 Z" id="Shape" fill="#253F53"></path>
                <path d="M428.745,39.324 C432.868,39.324 436.305,39.793 439.054,40.73 C441.803,41.667 444.005,43.012 445.661,44.759 C447.315,46.51 448.487,48.634 449.176,51.132 C449.864,53.632 450.206,56.412 450.206,59.473 L450.206,88.524 C448.206,88.962 445.427,89.477 441.865,90.071 C438.302,90.666 433.993,90.963 428.93,90.963 C425.743,90.963 422.856,90.683 420.262,90.119 C417.668,89.555 415.435,88.635 413.564,87.352 C411.689,86.074 410.251,84.401 409.251,82.337 C408.251,80.275 407.751,77.745 407.751,74.747 C407.751,71.872 408.328,69.435 409.484,67.435 C410.636,65.437 412.182,63.84 414.124,62.657 C416.061,61.47 418.277,60.611 420.777,60.081 C423.275,59.55 425.869,59.284 428.552,59.284 C430.365,59.284 431.972,59.361 433.378,59.517 C434.784,59.67 435.923,59.875 436.799,60.123 L436.799,58.81 C436.799,56.435 436.08,54.533 434.644,53.095 C433.206,51.658 430.707,50.939 427.149,50.939 C424.774,50.939 422.428,51.112 420.122,51.454 C417.809,51.799 415.809,52.283 414.124,52.907 L412.343,41.662 C413.156,41.412 414.171,41.147 415.389,40.865 C416.61,40.585 417.934,40.335 419.371,40.115 C420.809,39.897 422.323,39.71 423.917,39.553 C425.513,39.403 427.12,39.324 428.745,39.324 M429.87,80.184 C431.244,80.184 432.556,80.153 433.807,80.089 C435.056,80.027 436.056,79.934 436.806,79.809 L436.806,69.218 C436.243,69.093 435.403,68.971 434.279,68.843 C433.154,68.721 432.123,68.657 431.183,68.657 C429.87,68.657 428.636,68.734 427.484,68.888 C426.328,69.043 425.31,69.34 424.435,69.779 C423.559,70.217 422.872,70.81 422.374,71.56 C421.872,72.31 421.624,73.248 421.624,74.372 C421.624,76.56 422.355,78.075 423.826,78.917 C425.293,79.762 427.308,80.184 429.87,80.184" id="Shape" fill="#253F53"></path>
                <path d="M484.224,23.112 C486.848,23.112 489.253,23.379 491.443,23.909 C493.63,24.44 495.315,24.955 496.504,25.454 L493.785,36.607 C492.535,36.045 491.177,35.623 489.71,35.341 C488.241,35.06 486.883,34.92 485.634,34.92 C483.946,34.92 482.528,35.154 481.369,35.623 C480.214,36.091 479.306,36.733 478.652,37.544 C477.995,38.356 477.527,39.324 477.245,40.449 C476.965,41.574 476.824,42.792 476.824,44.104 L476.824,46.54 L494.067,46.54 L494.067,58.162 L476.82,58.162 L476.82,89.93 L462.857,89.93 L462.857,43.917 C462.857,37.544 464.652,32.484 468.246,28.735 C471.838,24.987 477.163,23.112 484.224,23.112 M523.489,23.112 C526.113,23.112 528.514,23.379 530.706,23.909 C532.892,24.44 534.579,24.955 535.766,25.454 L533.049,36.607 C531.799,36.045 530.443,35.623 528.972,35.341 C527.504,35.06 526.145,34.92 524.895,34.92 C523.208,34.92 521.791,35.154 520.632,35.623 C519.475,36.091 518.569,36.733 517.914,37.544 C517.259,38.356 516.789,39.324 516.508,40.449 C516.228,41.574 516.086,42.792 516.086,44.104 L516.086,46.54 L533.33,46.54 L533.33,58.162 L516.086,58.162 L516.086,89.93 L502.123,89.93 L502.123,43.917 C502.123,37.544 503.919,32.484 507.511,28.735 C511.103,24.987 516.429,23.112 523.489,23.112" id="Shape" fill="#253F53"></path>
                <path d="M13.732,98.916 L39.148,113.658 C40.588,114.494 42.396,114.119 43.458,112.836 C46.657,108.965 51.487,106.494 56.902,106.494 C62.321,106.494 67.154,108.969 70.355,112.846 C71.416,114.131 73.22,114.506 74.663,113.672 L100.209,98.877 C101.902,97.897 102.381,95.689 101.289,94.066 C100.049,92.226 98.699,90.464 97.246,88.796 C93.399,84.374 88.753,80.72 83.683,77.775 L80.28,75.8 L80.067,75.689 C79.867,75.593 79.667,75.5 79.464,75.406 C78.404,74.916 77.151,75.177 76.363,76.039 C71.546,81.322 64.614,84.643 56.901,84.643 C49.207,84.643 42.292,81.338 37.475,76.08 C36.691,75.226 35.448,74.975 34.397,75.465 L34.377,75.475 L30.4,77.781 C24.008,81.482 18.305,86.332 13.934,92.283 C13.477,92.904 13.034,93.537 12.604,94.179 C11.534,95.773 12.07,97.951 13.732,98.916" id="Shape" fill="#294DFF"></path>
                <path d="M17.867,15.078 C16.44,15.894 15.825,17.621 16.4,19.161 C18.166,23.888 17.885,29.334 15.152,34.038 C12.42,38.738 7.804,41.676 2.821,42.484 C1.197,42.747 0,44.133 0,45.778 C0.001,52.414 0.001,68.074 0.002,75.05 C0.002,76.968 1.614,78.52 3.53,78.397 C11.243,77.901 18.508,75.759 24.987,72.334 L28.098,70.555 C28.946,70.034 29.777,69.487 30.59,68.918 C31.547,68.25 31.968,67.051 31.628,65.936 C29.567,59.174 30.205,51.61 34.038,45.019 C37.889,38.393 44.187,34.084 51.124,32.548 C52.237,32.302 53.092,31.383 53.199,30.249 C53.327,28.907 53.406,27.551 53.431,26.182 L53.433,24.116 C53.287,16.142 51.395,8.6 48.122,1.85 C47.283,0.121 45.129,-0.507 43.461,0.446 L17.867,15.078 Z" id="Shape" fill="#1F95FF"></path>
                <path d="M98.652,34.039 C95.918,29.335 95.637,23.889 97.404,19.162 C97.979,17.622 97.364,15.894 95.937,15.079 L70.341,0.446 C68.673,-0.508 66.518,0.12 65.68,1.85 C62.407,8.601 60.515,16.143 60.368,24.116 L60.37,26.178 C60.397,27.547 60.474,28.904 60.603,30.247 C60.711,31.381 61.566,32.299 62.678,32.546 C69.615,34.081 75.912,38.391 79.764,45.017 C83.596,51.611 84.236,59.173 82.174,65.935 C81.834,67.05 82.255,68.249 83.212,68.917 C84.026,69.481 84.858,70.03 85.703,70.556 L88.816,72.333 C95.295,75.76 102.56,77.897 110.274,78.396 C112.189,78.519 113.8,76.968 113.8,75.047 C113.801,68.069 113.801,52.412 113.801,45.775 C113.801,44.13 112.607,42.745 110.982,42.482 C105.998,41.676 101.384,38.738 98.652,34.039" id="Shape" fill="#5FBBFF"></path>
            </g>
            <g id="Group" transform="translate(560.000000, 16.000000)" fill="#253F53">
                <path d="M15.83,74.494 C14.764,74.494 13.527,74.446 12.117,74.352 C10.707,74.258 9.263,74.132 7.793,73.976 C6.319,73.821 4.926,73.632 3.609,73.413 C2.292,73.194 1.166,72.959 0.225,72.708 L0.225,10.01 C1.353,9.697 2.606,9.431 3.986,9.211 C5.363,8.992 6.789,8.804 8.262,8.647 C9.734,8.492 11.176,8.381 12.585,8.318 C13.995,8.256 15.296,8.224 16.487,8.224 C19.995,8.224 23.333,8.506 26.497,9.069 C29.661,9.632 32.435,10.571 34.816,11.884 C37.197,13.198 39.093,14.935 40.503,17.094 C41.913,19.253 42.618,21.927 42.618,25.119 C42.618,28.623 41.725,31.61 39.939,34.081 C38.153,36.553 35.756,38.258 32.749,39.196 C34.628,39.637 36.352,40.264 37.919,41.08 C39.484,41.896 40.863,42.946 42.055,44.233 C43.244,45.519 44.169,47.087 44.827,48.938 C45.485,50.789 45.814,53.001 45.814,55.575 C45.814,61.724 43.37,66.416 38.482,69.646 C33.596,72.878 26.043,74.494 15.83,74.494 Z M6.617,37.176 L19.025,37.176 C21.343,37.176 23.537,37.005 25.605,36.662 C27.673,36.318 29.474,35.693 31.01,34.789 C32.544,33.884 33.751,32.667 34.628,31.138 C35.505,29.609 35.944,27.659 35.944,25.285 C35.944,23.164 35.474,21.369 34.534,19.901 C33.595,18.435 32.263,17.234 30.54,16.297 C28.815,15.36 26.764,14.69 24.383,14.284 C22.001,13.879 19.368,13.675 16.487,13.675 C14.167,13.675 12.21,13.738 10.612,13.863 C9.013,13.99 7.681,14.145 6.616,14.334 L6.616,37.176 L6.617,37.176 Z M6.617,42.628 L6.617,68.384 C7.557,68.51 8.968,68.652 10.847,68.807 C12.727,68.964 14.638,69.042 16.581,69.042 C19.462,69.042 22.268,68.854 24.993,68.477 C27.72,68.099 30.116,67.408 32.184,66.401 C34.252,65.395 35.912,64.011 37.166,62.251 C38.418,60.49 39.046,58.226 39.046,55.458 C39.046,52.943 38.607,50.853 37.73,49.186 C36.852,47.52 35.599,46.2 33.97,45.224 C32.34,44.249 30.351,43.574 28,43.196 C25.65,42.819 23.033,42.63 20.152,42.63 L6.617,42.63 L6.617,42.628 Z" id="Shape"></path>
                <path d="M71.383,74.775 C69.315,74.712 67.513,74.446 65.979,73.976 C64.442,73.506 63.159,72.787 62.125,71.814 C61.091,70.843 60.307,69.59 59.774,68.054 C59.241,66.519 58.975,64.592 58.975,62.273 L58.975,2.113 L65.085,0.985 L65.085,62.086 C65.085,63.59 65.227,64.797 65.508,65.705 C65.79,66.614 66.213,67.335 66.778,67.866 C67.341,68.399 68.077,68.792 68.987,69.042 C69.894,69.293 70.975,69.512 72.229,69.699 L71.383,74.775 Z" id="Shape"></path>
                <path d="M124.492,49.678 C124.492,53.501 123.941,56.979 122.846,60.112 C121.75,63.247 120.215,65.91 118.241,68.102 C116.268,70.296 113.932,72.003 111.239,73.225 C108.544,74.447 105.566,75.058 102.308,75.058 C99.049,75.058 96.072,74.447 93.377,73.225 C90.682,72.003 88.349,70.296 86.375,68.102 C84.4,65.91 82.864,63.247 81.769,60.112 C80.672,56.979 80.123,53.502 80.123,49.678 C80.123,45.857 80.672,42.378 81.769,39.244 C82.865,36.111 84.401,33.431 86.375,31.207 C88.349,28.983 90.683,27.259 93.377,26.037 C96.071,24.814 99.049,24.204 102.308,24.204 C105.566,24.204 108.543,24.814 111.239,26.037 C113.932,27.259 116.268,28.983 118.241,31.207 C120.216,33.432 121.751,36.111 122.846,39.244 C123.941,42.378 124.492,45.856 124.492,49.678 Z M118.006,49.678 C118.006,43.6 116.596,38.759 113.776,35.155 C110.956,31.552 107.133,29.751 102.308,29.751 C97.482,29.751 93.661,31.553 90.84,35.155 C88.02,38.759 86.61,43.6 86.61,49.678 C86.61,55.757 88.02,60.582 90.84,64.154 C93.66,67.726 97.482,69.512 102.308,69.512 C107.133,69.512 110.955,67.726 113.776,64.154 C116.596,60.582 118.006,55.757 118.006,49.678 Z" id="Shape"></path>
                <path d="M169.422,68.29 C169.046,68.603 168.483,68.964 167.731,69.371 C166.979,69.779 166.053,70.202 164.958,70.64 C163.861,71.079 162.608,71.439 161.198,71.721 C159.788,72.003 158.205,72.144 156.451,72.144 C153.631,72.144 150.905,71.706 148.273,70.829 C145.641,69.952 143.337,68.572 141.364,66.692 C139.389,64.812 137.806,62.384 136.617,59.407 C135.426,56.431 134.831,52.812 134.831,48.551 C134.831,45.105 135.363,41.909 136.429,38.963 C137.494,36.018 139.014,33.464 140.989,31.302 C142.963,29.14 145.375,27.448 148.227,26.226 C151.078,25.004 154.29,24.393 157.862,24.393 C162.374,24.393 165.993,24.691 168.718,25.287 C171.445,25.883 173.684,26.462 175.44,27.025 L175.44,71.393 C175.44,78.662 173.56,83.848 169.799,86.95 C166.039,90.053 160.367,91.603 152.785,91.603 C149.65,91.603 146.816,91.368 144.278,90.898 C141.74,90.428 139.561,89.878 137.745,89.253 L138.967,83.707 C140.471,84.395 142.524,84.99 145.124,85.492 C147.724,85.993 150.341,86.245 152.973,86.245 C158.739,86.245 162.921,85.132 165.523,82.907 C168.123,80.682 169.423,76.876 169.423,71.486 L169.423,68.29 L169.422,68.29 Z M169.328,31.254 C168.262,30.941 166.884,30.643 165.192,30.36 C163.5,30.079 161.087,29.937 157.954,29.937 C155.322,29.937 152.987,30.392 150.951,31.3 C148.914,32.209 147.175,33.494 145.734,35.154 C144.292,36.815 143.196,38.79 142.444,41.077 C141.692,43.365 141.316,45.887 141.316,48.643 C141.316,51.839 141.754,54.581 142.631,56.869 C143.508,59.157 144.652,61.02 146.063,62.462 C147.473,63.904 149.085,64.953 150.904,65.61 C152.72,66.268 154.57,66.597 156.45,66.597 C159.207,66.597 161.728,66.19 164.017,65.375 C166.303,64.561 168.074,63.621 169.328,62.555 L169.328,31.254 Z" id="Shape"></path>
            </g>
        </g>
    </g>
</svg>