<?xml version="1.0" encoding="utf-8"?>
<!-- Generator: Adobe Illustrator 16.0.0, SVG Export Plug-In . SVG Version: 6.00 Build 0)  -->
<!DOCTYPE svg PUBLIC "-//W3C//DTD SVG 1.1//EN" "http://www.w3.org/Graphics/SVG/1.1/DTD/svg11.dtd">
<svg version="1.1" id="Layer_1" xmlns="http://www.w3.org/2000/svg" xmlns:xlink="http://www.w3.org/1999/xlink" x="0px" y="0px"
	 width="535.766px" height="114.116px" viewBox="0 0 535.766 114.116" enable-background="new 0 0 535.766 114.116"
	 xml:space="preserve">
<g>
	<polygon fill="#253F53" points="185.377,24.986 199.997,24.986 199.997,89.929 185.377,89.929 185.377,62.378 160.824,62.378 
		160.824,89.929 146.206,89.929 146.206,24.986 160.824,24.986 160.824,49.82 185.377,49.82 	"/>
	<path fill="#253F53" d="M256.131,88.243c-2.375,0.687-5.436,1.327-9.185,1.921c-3.748,0.593-7.685,0.891-11.809,0.891
		c-4.185,0-7.669-0.563-10.447-1.687c-2.781-1.125-4.983-2.703-6.607-4.733c-1.625-2.03-2.781-4.452-3.468-7.263
		c-0.688-2.813-1.03-5.903-1.03-9.278V40.637h13.963v25.771c0,4.498,0.593,7.748,1.781,9.746c1.185,2,3.404,2.999,6.653,2.999
		c0.999,0,2.062-0.047,3.187-0.14c1.124-0.094,2.123-0.203,2.998-0.329V40.637h13.964V88.243z"/>
	<path fill="#253F53" d="M315.075,65.282c0,3.937-0.578,7.498-1.734,10.684c-1.157,3.187-2.827,5.904-5.014,8.152
		c-2.188,2.25-4.872,3.984-8.06,5.202c-3.186,1.218-6.81,1.828-10.871,1.828c-1.687,0-3.453-0.079-5.294-0.235
		c-1.843-0.157-3.655-0.36-5.435-0.609c-1.781-0.25-3.484-0.546-5.108-0.89c-1.626-0.342-3.062-0.703-4.311-1.078V25.123
		l13.963-2.249v18.887c1.561-0.687,3.187-1.219,4.874-1.594c1.686-0.374,3.498-0.562,5.435-0.562c3.498,0,6.59,0.609,9.277,1.828
		c2.686,1.218,4.935,2.952,6.748,5.2c1.812,2.25,3.186,4.953,4.123,8.107C314.605,57.896,315.075,61.409,315.075,65.282
		 M300.83,64.908c0-8.997-3.313-13.495-9.934-13.495c-1.438,0-2.858,0.188-4.264,0.562c-1.406,0.375-2.546,0.843-3.421,1.406v25.396
		c0.687,0.127,1.561,0.234,2.624,0.329c1.062,0.093,2.217,0.14,3.468,0.14c3.81,0,6.685-1.313,8.622-3.937
		C299.86,72.687,300.83,69.219,300.83,64.908"/>
	<path fill="#253F53" d="M340.002,79.902c2.561,0,4.372-0.249,5.436-0.75c1.062-0.499,1.592-1.468,1.592-2.905
		c0-1.124-0.687-2.108-2.062-2.951c-1.374-0.844-3.467-1.796-6.278-2.858c-2.187-0.812-4.17-1.654-5.95-2.53
		c-1.781-0.874-3.297-1.922-4.546-3.14c-1.251-1.219-2.219-2.671-2.905-4.357c-0.688-1.688-1.03-3.717-1.03-6.091
		c0-4.623,1.717-8.278,5.154-10.965c3.436-2.686,8.153-4.03,14.15-4.03c2.999,0,5.872,0.267,8.621,0.797
		c2.749,0.532,4.936,1.11,6.561,1.734l-2.437,10.87c-1.625-0.562-3.389-1.061-5.295-1.499c-1.906-0.436-4.046-0.656-6.419-0.656
		c-4.373,0-6.561,1.219-6.561,3.655c0,0.562,0.094,1.063,0.281,1.499c0.188,0.438,0.563,0.86,1.125,1.265
		c0.563,0.406,1.326,0.847,2.295,1.317c0.968,0.474,2.204,0.992,3.703,1.559c3.06,1.135,5.589,2.253,7.59,3.354
		c1.999,1.104,3.576,2.293,4.733,3.571c1.154,1.278,1.967,2.697,2.436,4.255s0.703,3.366,0.703,5.422
		c0,4.863-1.828,8.541-5.481,11.035c-3.655,2.491-8.826,3.74-15.511,3.74c-4.373,0-8.013-0.375-10.917-1.125
		c-2.905-0.749-4.92-1.373-6.045-1.874l2.343-11.339c2.374,0.936,4.811,1.671,7.31,2.201
		C335.097,79.637,337.565,79.902,340.002,79.902"/>
	<path fill="#253F53" d="M370.831,25.124l13.965-2.25v17.763h16.773v11.62h-16.773v17.337c0,2.938,0.515,5.279,1.545,7.028
		c1.031,1.75,3.107,2.624,6.232,2.624c1.499,0,3.045-0.141,4.639-0.422s3.046-0.671,4.357-1.171l1.969,10.87
		c-1.687,0.688-3.561,1.281-5.624,1.781c-2.062,0.499-4.592,0.75-7.591,0.75c-3.81,0-6.967-0.517-9.465-1.547
		c-2.499-1.031-4.498-2.468-5.997-4.311c-1.5-1.843-2.547-4.077-3.139-6.701c-0.595-2.624-0.892-5.528-0.892-8.716V25.124z"/>
	<path fill="#253F53" d="M428.745,39.324c4.123,0,7.56,0.469,10.309,1.406s4.951,2.282,6.607,4.029
		c1.654,1.751,2.826,3.875,3.515,6.373c0.686,2.5,1.03,5.28,1.03,8.34v29.052c-2,0.437-4.779,0.952-8.341,1.546
		c-3.561,0.593-7.872,0.89-12.932,0.89c-3.187,0-6.077-0.281-8.668-0.843c-2.594-0.563-4.827-1.484-6.701-2.765
		c-1.875-1.28-3.313-2.952-4.311-5.015c-1-2.061-1.5-4.591-1.5-7.59c0-2.874,0.577-5.31,1.733-7.31
		c1.155-1.999,2.701-3.593,4.64-4.78c1.936-1.186,4.153-2.045,6.653-2.576c2.498-0.53,5.092-0.797,7.778-0.797
		c1.811,0,3.42,0.079,4.826,0.234c1.406,0.156,2.545,0.36,3.421,0.608v-1.311c0-2.375-0.719-4.279-2.156-5.717
		c-1.437-1.437-3.936-2.156-7.497-2.156c-2.375,0-4.718,0.173-7.027,0.515c-2.313,0.345-4.313,0.829-5.998,1.453l-1.781-11.245
		c0.812-0.25,1.828-0.515,3.046-0.797c1.218-0.28,2.545-0.53,3.982-0.75c1.438-0.218,2.952-0.405,4.546-0.562
		C425.513,39.403,427.12,39.324,428.745,39.324 M429.87,80.183c1.374,0,2.686-0.03,3.937-0.094c1.249-0.061,2.249-0.156,2.999-0.281
		V69.219c-0.563-0.125-1.406-0.249-2.53-0.375c-1.125-0.124-2.156-0.187-3.093-0.187c-1.313,0-2.547,0.078-3.702,0.233
		c-1.156,0.156-2.171,0.453-3.046,0.891c-0.876,0.438-1.563,1.03-2.061,1.78c-0.502,0.75-0.75,1.688-0.75,2.811
		c0,2.188,0.732,3.703,2.202,4.546C425.293,79.762,427.308,80.183,429.87,80.183"/>
	<path fill="#253F53" d="M484.224,23.112c2.624,0,5.029,0.267,7.216,0.797c2.187,0.531,3.873,1.046,5.061,1.545l-2.719,11.153
		c-1.25-0.562-2.608-0.984-4.075-1.266c-1.469-0.281-2.827-0.421-4.076-0.421c-1.688,0-3.109,0.234-4.265,0.703
		c-1.155,0.468-2.062,1.11-2.717,1.921c-0.657,0.812-1.125,1.78-1.407,2.905c-0.28,1.125-0.421,2.343-0.421,3.655v2.436h17.243
		v11.621H476.82v31.768h-13.963V43.917c0-6.373,1.795-11.433,5.389-15.182C471.838,24.987,477.163,23.112,484.224,23.112
		 M523.489,23.112c2.624,0,5.028,0.267,7.217,0.797c2.186,0.531,3.873,1.046,5.06,1.545l-2.717,11.153
		c-1.25-0.562-2.609-0.984-4.077-1.266c-1.468-0.281-2.827-0.421-4.077-0.421c-1.687,0-3.107,0.234-4.263,0.703
		c-1.157,0.468-2.063,1.11-2.718,1.921c-0.655,0.812-1.125,1.78-1.406,2.905c-0.28,1.125-0.422,2.343-0.422,3.655v2.436h17.244
		v11.621h-17.244v31.768h-13.963V43.917c0-6.373,1.796-11.433,5.388-15.182C511.103,24.987,516.429,23.112,523.489,23.112"/>
	<path fill="#294DFF" d="M13.732,98.915l25.416,14.743c1.44,0.836,3.248,0.461,4.31-0.823c3.199-3.87,8.029-6.342,13.444-6.342
		c5.419,0,10.252,2.476,13.453,6.352c1.061,1.285,2.865,1.661,4.308,0.826l25.546-14.795c1.693-0.981,2.172-3.186,1.08-4.809
		c-1.24-1.841-2.59-3.601-4.043-5.269c-3.847-4.421-8.493-8.078-13.563-11.019l-3.403-1.975l-0.213-0.112
		c-0.2-0.096-0.4-0.19-0.603-0.284c-1.06-0.49-2.313-0.23-3.101,0.633c-4.817,5.283-11.749,8.604-19.462,8.604
		c-7.694,0-14.609-3.303-19.426-8.563c-0.784-0.856-2.027-1.108-3.078-0.616l-0.02,0.009L30.4,77.781
		c-6.392,3.701-12.095,8.55-16.466,14.501c-0.457,0.622-0.9,1.254-1.33,1.896C11.534,95.774,12.07,97.95,13.732,98.915"/>
	<path fill="#1F95FF" d="M17.867,15.078c-1.427,0.816-2.042,2.543-1.467,4.083c1.766,4.727,1.485,10.173-1.248,14.877
		c-2.732,4.7-7.348,7.638-12.331,8.446C1.197,42.747,0,44.133,0,45.778c0.001,6.636,0.001,22.296,0.002,29.272
		c0,1.919,1.612,3.47,3.528,3.347c7.713-0.496,14.978-2.637,21.457-6.063l3.111-1.78c0.848-0.522,1.679-1.068,2.492-1.637
		c0.957-0.667,1.378-1.867,1.038-2.982c-2.061-6.762-1.423-14.326,2.41-20.919c3.851-6.626,10.149-10.935,17.086-12.471
		c1.113-0.246,1.968-1.165,2.075-2.299c0.128-1.342,0.207-2.698,0.232-4.067l0.002-2.066c-0.146-7.972-2.038-15.514-5.311-22.264
		c-0.839-1.729-2.993-2.357-4.661-1.404L17.867,15.078z"/>
	<path fill="#5FBBFF" d="M98.652,34.039c-2.734-4.704-3.015-10.15-1.248-14.877c0.575-1.54-0.04-3.268-1.467-4.083L70.341,0.446
		C68.673-0.508,66.518,0.12,65.68,1.85c-3.273,6.751-5.165,14.293-5.312,22.266l0.002,2.062c0.027,1.369,0.104,2.726,0.233,4.069
		c0.108,1.134,0.963,2.052,2.075,2.299c6.937,1.535,13.234,5.845,17.086,12.471c3.832,6.594,4.472,14.157,2.41,20.919
		c-0.34,1.116,0.081,2.316,1.038,2.983c0.814,0.567,1.646,1.113,2.491,1.637l3.113,1.779c6.479,3.427,13.744,5.566,21.458,6.063
		c1.915,0.123,3.526-1.427,3.526-3.347c0.001-6.977,0.001-22.636,0.001-29.273c0-1.645-1.194-3.03-2.819-3.293
		C105.998,41.676,101.384,38.738,98.652,34.039"/>
</g>
</svg>
