<?xml version="1.0" encoding="UTF-8"?>
<svg width="21px" height="21px" viewBox="0 0 21 21" version="1.1" xmlns="http://www.w3.org/2000/svg" xmlns:xlink="http://www.w3.org/1999/xlink">
    <!-- Generator: Sketch 51.3 (57544) - http://www.bohemiancoding.com/sketch -->
    <title>search</title>
    <desc>Created with Sketch.</desc>
    <defs></defs>
    <g id="Page-1" stroke="none" stroke-width="1" fill="none" fill-rule="evenodd">
        <g id="mob---home-blog" transform="translate(-293.000000, -39.000000)" fill="#000000" fill-rule="nonzero">
            <path d="M308.09375,51.9433962 C309.0125,50.6226415 309.5375,49.0377358 309.5375,47.3207547 C309.5375,42.6981132 305.8625,39 301.26875,39 C296.675,39 293,42.5660377 293,47.1886792 C293,51.8113208 296.675,55.509434 301.26875,55.509434 C302.975,55.509434 304.55,54.9811321 305.8625,54.0566038 L311.76875,60 L314,57.754717 L308.09375,51.9433962 Z M295.49375,47.1886792 C295.49375,44.0188679 298.11875,41.3773585 301.26875,41.3773585 C304.41875,41.3773585 307.04375,44.0188679 307.04375,47.1886792 C307.04375,50.3584906 304.41875,53 301.26875,53 C298.11875,53 295.49375,50.490566 295.49375,47.1886792 Z" id="search"></path>
        </g>
    </g>
</svg>