<svg xmlns="http://www.w3.org/2000/svg" width="823.855" height="110.246" viewBox="0 0 823.855 110.246"><path fill="#263F54" d="M614.098 23.488v5.524h-20.789v59.372h-6.37V29.012H566.15v-5.524zm21.256 15.357c3.184 0 5.883.454 8.1 1.359 2.217.905 4.012 2.153 5.385 3.745 1.373 1.592 2.373 3.481 2.998 5.666.623 2.185.936 4.557.936 7.116v30.528c-.625.188-1.531.392-2.715.61-1.188.218-2.561.453-4.121.702-1.561.248-3.293.451-5.197.607s-3.855.235-5.854.235c-2.561 0-4.916-.282-7.07-.843-2.152-.563-4.025-1.452-5.617-2.669-1.592-1.219-2.842-2.777-3.746-4.684-.906-1.902-1.357-4.228-1.357-6.976 0-2.622.498-4.869 1.498-6.742.998-1.873 2.402-3.418 4.213-4.636s3.965-2.107 6.463-2.669c2.496-.563 5.211-.844 8.146-.844.873 0 1.793.048 2.762.142.969.093 1.904.219 2.811.375.904.156 1.686.312 2.34.467.656.158 1.109.297 1.359.422v-2.997c0-1.685-.127-3.324-.375-4.916-.25-1.592-.797-3.027-1.639-4.307-.844-1.28-2.029-2.309-3.559-3.091-1.531-.779-3.545-1.17-6.041-1.17-3.559 0-6.213.25-7.959.749-1.748.5-3.029.905-3.84 1.218l-.842-5.338c1.061-.499 2.699-.968 4.916-1.405 2.214-.434 4.881-.654 8.005-.654m.562 45.137c2.371 0 4.447-.077 6.227-.234 1.779-.155 3.293-.359 4.543-.609V66.096c-.688-.311-1.779-.639-3.279-.982-1.498-.344-3.557-.517-6.18-.517-1.498 0-3.059.111-4.682.328-1.625.22-3.123.688-4.496 1.405a9.339 9.339 0 0 0-3.371 2.95c-.875 1.25-1.311 2.902-1.311 4.963 0 1.811.295 3.341.891 4.589.592 1.25 1.434 2.247 2.527 2.997 1.092.749 2.402 1.296 3.934 1.638 1.529.344 3.261.515 5.197.515m44.668 5.244c-2.061-.062-3.855-.327-5.385-.796-1.531-.469-2.811-1.185-3.84-2.153-1.031-.968-1.813-2.215-2.342-3.745-.531-1.53-.795-3.45-.795-5.76V16.838l6.086-1.123v60.869c0 1.498.141 2.701.422 3.605.281.905.703 1.625 1.264 2.153.563.531 1.295.922 2.201 1.171.904.25 1.98.469 3.23.655l-.841 5.058zm8.707-25.096c0-4.245.609-7.944 1.826-11.097 1.219-3.152 2.811-5.79 4.775-7.913 1.967-2.122 4.215-3.699 6.744-4.729a20.51 20.51 0 0 1 7.818-1.545c5.93 0 10.66 1.935 14.188 5.805 3.525 3.872 5.291 9.833 5.291 17.887 0 .5-.016.999-.047 1.498-.033.5-.08.97-.141 1.404h-33.992c.186 5.933 1.652 10.489 4.4 13.673 2.746 3.185 7.117 4.776 13.109 4.776 3.309 0 5.932-.313 7.867-.938 1.934-.623 3.339-1.153 4.214-1.592l1.124 5.244c-.875.5-2.514 1.093-4.916 1.78-2.404.686-5.23 1.029-8.475 1.029-4.246 0-7.867-.625-10.863-1.872-2.996-1.248-5.465-2.997-7.398-5.244-1.936-2.247-3.34-4.916-4.213-8.008-.873-3.089-1.311-6.475-1.311-10.158m34.367-3.841c-.125-5.057-1.311-8.988-3.557-11.798-2.248-2.809-5.432-4.214-9.553-4.214-2.186 0-4.137.438-5.854 1.311A14.883 14.883 0 0 0 700.2 49.1c-1.281 1.467-2.279 3.169-2.996 5.103a20.943 20.943 0 0 0-1.266 6.087h27.72zm19.852-18.634c1.811-.499 4.244-1.061 7.305-1.686 3.059-.623 6.803-.936 11.236-.936 3.684 0 6.758.531 9.225 1.592 2.465 1.062 4.432 2.575 5.9 4.542 1.465 1.967 2.512 4.323 3.137 7.07.623 2.747.936 5.774.936 9.083v27.063h-6.086V63.287c0-3.434-.234-6.336-.703-8.709-.467-2.372-1.248-4.308-2.34-5.806-1.094-1.499-2.529-2.575-4.309-3.231-1.779-.656-4.012-.984-6.695-.984-2.873 0-5.354.158-7.445.469-2.092.314-3.449.594-4.072.843v42.515h-6.088V41.655zm58.994-1.686h19.291v5.15h-19.291v25.752c0 2.748.234 4.98.703 6.696.469 1.717 1.139 3.044 2.014 3.979a6.348 6.348 0 0 0 3.184 1.873c1.248.313 2.621.469 4.121.469 2.559 0 4.619-.296 6.18-.891 1.561-.592 2.777-1.137 3.652-1.638l1.498 5.056c-.875.563-2.404 1.203-4.588 1.92-2.188.718-4.559 1.077-7.117 1.077-2.998 0-5.512-.39-7.539-1.171-2.029-.779-3.652-1.966-4.869-3.558-1.217-1.593-2.076-3.573-2.576-5.946s-.748-5.181-.748-8.428V25.735l6.086-1.124v15.358z"/><path fill="#FF521D" d="M95.378 78.848a4.576 4.576 0 0 0-2.715-4.179l-3.325-1.482-5.354-2.387c-4.873 6.245-12.464 10.265-20.998 10.265S46.861 77.045 41.987 70.8l-5.29 2.358-3.388 1.511a4.58 4.58 0 0 0-2.715 4.179l-.025 27.48v.074c.036 2.311 1.993 3.844 4.051 3.844.86 0 1.737-.268 2.499-.857l23.355-18.061a4.095 4.095 0 0 1 2.512-.858c.886 0 1.772.285 2.512.858l23.354 18.061c.763.59 1.64.857 2.5.857 2.059 0 4.017-1.533 4.052-3.844v-.074l-.026-27.48z"/><path fill="#FF881D" d="M57.856 14.105L33.974.513l-.066-.036A3.763 3.763 0 0 0 32.079 0c-2.301 0-4.368 2.133-4.001 4.697l4.171 29.228a4.105 4.105 0 0 1-2.48 4.367L2.528 49.684c-3.019 1.261-3.46 5.509-.639 7.169l.066.038 23.908 13.548a4.583 4.583 0 0 0 4.975-.296l2.857-2.105 4.793-3.531c-3.025-7.321-2.772-15.907 1.443-23.329 4.214-7.421 11.459-12.037 19.297-13.19l.574-5.889.348-3.567a4.585 4.585 0 0 0-2.294-4.427"/><path fill="#FFC20F" d="M123.95 49.683L96.71 38.292a4.105 4.105 0 0 1-2.481-4.367l4.172-29.228C98.768 2.134 96.701-.001 94.4 0c-.607 0-1.23.148-1.829.476l-.066.037-23.883 13.592a4.584 4.584 0 0 0-2.293 4.426l.352 3.612.57 5.844c7.837 1.153 15.081 5.769 19.296 13.191 4.215 7.421 4.468 16.006 1.444 23.327l4.478 3.301 3.17 2.337a4.583 4.583 0 0 0 4.976.296l23.908-13.548.066-.038c2.82-1.661 2.38-5.909-.639-7.17"/><path fill="#263F54" d="M197.445 21.923h14.62v66.399h-14.62V60.77h-24.554v27.552h-14.619V21.923h14.619v26.289h24.554zm70.756 64.712c-2.375.689-5.435 1.328-9.184 1.923-3.749.592-7.686.89-11.809.89-4.186 0-7.67-.563-10.449-1.688-2.781-1.125-4.984-2.7-6.607-4.732-1.626-2.029-2.781-4.451-3.468-7.263-.688-2.813-1.031-5.904-1.031-9.277v-27.46h13.965v25.771c0 4.498.592 7.747 1.779 9.746 1.186 2.001 3.405 3 6.656 3 .998 0 2.061-.047 3.186-.14a51.407 51.407 0 0 0 2.999-.33V39.027h13.963v47.608zm58.947-22.959c0 3.936-.578 7.496-1.734 10.684-1.156 3.186-2.828 5.903-5.013 8.152-2.189 2.25-4.874 3.982-8.06 5.201-3.187 1.219-6.811 1.828-10.872 1.828a63.71 63.71 0 0 1-5.295-.234c-1.843-.157-3.654-.36-5.436-.61a75.253 75.253 0 0 1-5.107-.889 54.754 54.754 0 0 1-4.311-1.078V23.402l13.964-2.25v19a26.173 26.173 0 0 1 4.874-1.594c1.686-.374 3.497-.562 5.435-.562 3.498 0 6.591.609 9.278 1.828 2.686 1.217 4.934 2.952 6.748 5.201 1.811 2.249 3.185 4.952 4.124 8.106.937 3.157 1.405 6.671 1.405 10.545m-14.245-.375c0-8.997-3.312-13.496-9.934-13.496a16.47 16.47 0 0 0-4.264.561c-1.406.376-2.546.844-3.421 1.407v25.396c.687.127 1.561.235 2.625.329a39.44 39.44 0 0 0 3.467.141c3.81 0 6.684-1.313 8.622-3.937 1.935-2.624 2.905-6.091 2.905-10.401m39.172 14.994c2.562 0 4.373-.249 5.436-.749s1.593-1.469 1.593-2.906c0-1.125-.687-2.109-2.061-2.951-1.376-.845-3.468-1.796-6.28-2.859-2.188-.812-4.17-1.654-5.951-2.53-1.779-.874-3.296-1.922-4.545-3.14-1.25-1.219-2.218-2.671-2.904-4.358-.689-1.686-1.031-3.716-1.031-6.09 0-4.624 1.717-8.279 5.154-10.965 3.434-2.686 8.153-4.03 14.152-4.03 2.998 0 5.871.266 8.621.796 2.749.531 4.935 1.111 6.561 1.734l-2.438 10.871a51.274 51.274 0 0 0-5.295-1.499c-1.907-.437-4.045-.656-6.419-.656-4.374 0-6.561 1.218-6.561 3.654 0 .563.094 1.064.282 1.5.186.438.562.86 1.125 1.266.561.407 1.326.846 2.295 1.318.969.474 2.203.992 3.702 1.559 3.062 1.135 5.591 2.254 7.592 3.354 1.997 1.103 3.575 2.294 4.733 3.57 1.155 1.277 1.968 2.698 2.436 4.256.468 1.557.703 3.365.703 5.421 0 4.864-1.828 8.542-5.483 11.037-3.655 2.491-8.825 3.738-15.51 3.738-4.373 0-8.013-.374-10.919-1.123-2.905-.751-4.919-1.374-6.044-1.875l2.344-11.34a45.62 45.62 0 0 0 7.31 2.202c2.496.529 4.966.795 7.402.795m30.832-54.893l13.965-2.25v17.875h16.775v11.622h-16.775v17.337c0 2.937.515 5.279 1.546 7.027 1.031 1.75 3.107 2.624 6.232 2.624 1.5 0 3.046-.139 4.639-.421 1.594-.281 3.047-.671 4.358-1.172l1.968 10.872c-1.687.688-3.561 1.282-5.623 1.78-2.061.5-4.593.75-7.591.75-3.812 0-6.967-.516-9.466-1.547-2.499-1.03-4.498-2.467-5.997-4.311-1.499-1.843-2.547-4.077-3.139-6.701-.596-2.624-.892-5.53-.892-8.716V23.402zm57.917 14.314c4.124 0 7.56.468 10.309 1.405 2.748.937 4.95 2.281 6.606 4.029 1.656 1.75 2.827 3.876 3.516 6.373.687 2.5 1.03 5.281 1.03 8.341v29.053c-2 .438-4.779.952-8.34 1.546-3.563.592-7.872.891-12.935.891-3.187 0-6.076-.28-8.668-.844-2.595-.562-4.826-1.482-6.7-2.765a12.626 12.626 0 0 1-4.312-5.015c-1.001-2.062-1.5-4.593-1.5-7.59 0-2.873.577-5.31 1.733-7.311 1.156-1.999 2.703-3.592 4.64-4.779 1.936-1.186 4.154-2.047 6.654-2.578a37.512 37.512 0 0 1 7.778-.795c1.812 0 3.42.078 4.826.233 1.405.157 2.545.36 3.42.609v-1.313c0-2.373-.719-4.278-2.155-5.716-1.438-1.436-3.936-2.156-7.496-2.156-2.375 0-4.72.174-7.03.516-2.312.344-4.311.83-5.997 1.454l-1.78-11.247a44.28 44.28 0 0 1 3.045-.796 53.622 53.622 0 0 1 3.984-.75 87.49 87.49 0 0 1 4.544-.563 50.187 50.187 0 0 1 4.828-.232m1.125 40.86c1.373 0 2.686-.031 3.936-.094 1.248-.062 2.249-.155 2.998-.281v-10.59c-.562-.125-1.404-.249-2.529-.375a28.427 28.427 0 0 0-3.093-.188c-1.312 0-2.546.078-3.702.234-1.155.156-2.172.454-3.045.889-.877.439-1.563 1.032-2.063 1.781-.501.751-.75 1.688-.75 2.813 0 2.187.735 3.702 2.203 4.545 1.467.843 3.482 1.266 6.045 1.266m54.357-57.163c2.624 0 5.026.267 7.216.796 2.185.533 3.872 1.048 5.06 1.546l-2.718 11.153a18.348 18.348 0 0 0-4.077-1.266c-1.467-.28-2.827-.421-4.076-.421-1.687 0-3.107.235-4.264.703-1.157.468-2.063 1.111-2.718 1.921-.656.813-1.125 1.781-1.406 2.906-.28 1.125-.421 2.342-.421 3.655v2.436h17.244v11.621h-17.244v31.859h-13.965V42.218c0-6.373 1.796-11.433 5.389-15.182s8.916-5.623 15.98-5.623m39.266 0c2.624 0 5.028.267 7.216.796 2.186.533 3.873 1.048 5.061 1.546l-2.719 11.153a18.331 18.331 0 0 0-4.075-1.266c-1.469-.28-2.828-.421-4.077-.421-1.688 0-3.108.235-4.265.703-1.155.468-2.061 1.111-2.718 1.921-.655.813-1.123 1.781-1.405 2.906-.28 1.125-.422 2.342-.422 3.655v2.436h17.244v11.621h-17.244v31.859h-13.963V42.218c0-6.373 1.794-11.433 5.389-15.182 3.592-3.749 8.918-5.623 15.978-5.623"/></svg>