<svg xmlns="http://www.w3.org/2000/svg" width="774.568" height="110.218" viewBox="0 0 774.568 110.218"><path fill="#253F53" d="M605.637 22.517v5.524h-20.789v59.372h-6.369V28.041h-20.79v-5.524zm21.256 15.357c3.184 0 5.883.454 8.1 1.359 2.217.905 4.012 2.153 5.385 3.745 1.373 1.592 2.373 3.481 2.998 5.666.623 2.185.935 4.557.935 7.117v30.527c-.625.188-1.53.392-2.714.61-1.188.218-2.561.453-4.121.702a68.92 68.92 0 0 1-5.197.607 71.671 71.671 0 0 1-5.854.235c-2.561 0-4.916-.282-7.071-.843-2.151-.563-4.024-1.452-5.616-2.669-1.593-1.219-2.843-2.777-3.746-4.684-.906-1.902-1.357-4.228-1.357-6.976 0-2.622.498-4.869 1.498-6.742.998-1.873 2.402-3.418 4.213-4.636 1.811-1.217 3.965-2.107 6.463-2.669 2.496-.563 5.211-.844 8.146-.844.873 0 1.793.048 2.762.142.969.093 1.904.219 2.811.375.904.156 1.686.312 2.34.467.655.158 1.109.297 1.359.422V56.79c0-1.685-.127-3.324-.375-4.916-.25-1.592-.797-3.027-1.639-4.307-.844-1.28-2.029-2.309-3.559-3.091-1.531-.779-3.545-1.17-6.041-1.17-3.559 0-6.213.25-7.959.749-1.748.5-3.029.905-3.841 1.218l-.841-5.338c1.061-.499 2.699-.968 4.916-1.405 2.213-.436 4.881-.656 8.005-.656m.562 45.137c2.371 0 4.447-.077 6.227-.234 1.779-.155 3.293-.359 4.543-.609V65.125c-.688-.311-1.779-.639-3.279-.982-1.498-.344-3.557-.517-6.18-.517-1.498 0-3.059.111-4.682.328-1.625.22-3.123.688-4.496 1.405a9.339 9.339 0 0 0-3.371 2.95c-.875 1.25-1.311 2.902-1.311 4.963 0 1.811.295 3.341.891 4.589.592 1.25 1.433 2.247 2.527 2.997 1.092.749 2.401 1.296 3.934 1.638 1.529.343 3.261.515 5.197.515m42.326.093c3.496 0 6.383-.575 8.662-1.731 2.276-1.155 3.418-3.105 3.418-5.854 0-1.311-.203-2.435-.609-3.37-.407-.938-1.076-1.779-2.014-2.528-.937-.75-2.17-1.467-3.697-2.155a235.82 235.82 0 0 0-5.666-2.434 99.41 99.41 0 0 1-5.15-2.295c-1.625-.779-3.061-1.687-4.309-2.716s-2.246-2.263-2.996-3.698c-.75-1.436-1.123-3.185-1.123-5.244 0-3.934 1.482-7.118 4.447-9.552 2.965-2.435 7.039-3.652 12.221-3.652 3.309 0 6.041.281 8.193.842 2.154.562 3.668 1.063 4.543 1.498l-1.404 5.432c-.75-.374-2.014-.873-3.793-1.498-1.779-.623-4.387-.937-7.82-.937-1.373 0-2.668.142-3.887.423-1.217.282-2.293.72-3.23 1.314a7.001 7.001 0 0 0-2.246 2.252c-.563.907-.844 2.016-.844 3.33s.248 2.441.75 3.379c.498.939 1.23 1.767 2.199 2.486.969.721 2.154 1.392 3.559 2.012 1.406.622 3.012 1.304 4.824 2.051 1.87.747 3.666 1.507 5.383 2.284 1.717.776 3.232 1.712 4.543 2.803a13.033 13.033 0 0 1 3.184 3.934c.811 1.53 1.217 3.45 1.217 5.76 0 4.37-1.639 7.679-4.915 9.927-3.278 2.247-7.759 3.371-13.438 3.371-4.246 0-7.492-.361-9.738-1.078-2.248-.716-3.746-1.264-4.496-1.638l1.592-5.526c.188.126.594.329 1.217.609.625.28 1.467.595 2.529.936 1.061.345 2.324.643 3.792.89 1.464.25 3.166.373 5.102.373m42.326-22.053c2.207 1.555 4.436 3.349 6.682 5.384a103.289 103.289 0 0 1 6.65 6.616c2.182 2.375 4.24 4.812 6.172 7.311s3.576 4.848 4.938 7.05h-7.314a59.843 59.843 0 0 0-5.102-7.241 83.201 83.201 0 0 0-6.09-6.683 88.101 88.101 0 0 0-6.375-5.717c-2.124-1.722-4.008-3.016-5.646-3.878v23.519h-6.088V15.867l6.088-1.123v45.108c1.301-1.115 2.924-2.638 4.867-4.564a652.108 652.108 0 0 1 5.941-5.813 300.137 300.137 0 0 0 5.711-5.664c1.791-1.828 3.295-3.432 4.51-4.813h7.438a230.656 230.656 0 0 1-4.934 4.992c-1.855 1.83-3.789 3.735-5.802 5.717a37142.67 37142.67 0 0 1-5.94 5.856 319.609 319.609 0 0 1-5.706 5.488m44.106 22.053c3.496 0 6.383-.575 8.662-1.731 2.279-1.155 3.418-3.105 3.418-5.854 0-1.311-.203-2.435-.607-3.37-.406-.938-1.077-1.779-2.014-2.528-.938-.75-2.17-1.467-3.699-2.155a234.08 234.08 0 0 0-5.666-2.434 100.176 100.176 0 0 1-5.15-2.295c-1.623-.779-3.059-1.687-4.307-2.716a11.816 11.816 0 0 1-2.996-3.698c-.75-1.436-1.125-3.185-1.125-5.244 0-3.934 1.482-7.118 4.449-9.552 2.963-2.435 7.037-3.652 12.222-3.652 3.306 0 6.038.281 8.192.842 2.154.562 3.666 1.063 4.541 1.498l-1.404 5.432c-.75-.374-2.014-.873-3.793-1.498-1.779-.623-4.387-.937-7.818-.937-1.375 0-2.67.142-3.887.423-1.217.282-2.295.72-3.23 1.314a7.018 7.018 0 0 0-2.248 2.252c-.562.907-.842 2.016-.842 3.33s.248 2.441.748 3.379c.5.939 1.232 1.767 2.201 2.486.967.721 2.154 1.392 3.559 2.012 1.404.622 3.012 1.304 4.822 2.051a129.95 129.95 0 0 1 5.385 2.284c1.717.776 3.23 1.712 4.541 2.803a13.01 13.01 0 0 1 3.186 3.934c.811 1.53 1.217 3.45 1.217 5.76 0 4.37-1.639 7.679-4.916 9.927-3.277 2.247-7.758 3.371-13.439 3.371-4.246 0-7.49-.361-9.738-1.078-2.248-.716-3.746-1.264-4.494-1.638l1.592-5.526c.188.126.592.329 1.217.609.623.28 1.467.595 2.529.936 1.061.345 2.324.643 3.791.89 1.464.25 3.165.373 5.101.373M189.125 21.885h14.621v64.944h-14.621V59.277h-24.553v27.552h-14.618V21.885h14.618v24.834h24.553zm70.754 63.256c-2.375.688-5.436 1.328-9.184 1.922-3.749.593-7.684.891-11.808.891-4.186 0-7.67-.563-10.449-1.688-2.781-1.125-4.983-2.701-6.607-4.732-1.625-2.029-2.781-4.451-3.467-7.263-.688-2.812-1.031-5.903-1.031-9.278V37.536h13.963v25.771c0 4.498.593 7.748 1.781 9.746 1.186 2 3.405 2.999 6.653 2.999.999 0 2.062-.047 3.187-.14a52.185 52.185 0 0 0 2.998-.328V37.536h13.964v47.605zm58.944-22.96c0 3.937-.578 7.498-1.734 10.685-1.157 3.186-2.827 5.903-5.013 8.151-2.188 2.25-4.873 3.984-8.06 5.202-3.186 1.218-6.81 1.828-10.871 1.828a62.81 62.81 0 0 1-5.294-.235c-1.843-.157-3.655-.36-5.436-.609a75.025 75.025 0 0 1-5.107-.89 53.14 53.14 0 0 1-4.311-1.078V22.022l13.963-2.249V38.66a26.247 26.247 0 0 1 4.874-1.594c1.686-.374 3.498-.562 5.435-.562 3.498 0 6.59.61 9.277 1.828 2.686 1.218 4.934 2.952 6.748 5.201 1.811 2.249 3.186 4.952 4.123 8.106.937 3.155 1.406 6.67 1.406 10.542m-14.245-.374c0-8.997-3.312-13.495-9.933-13.495-1.438 0-2.859.188-4.264.562-1.406.375-2.547.844-3.421 1.406v25.396c.687.127 1.561.234 2.624.329 1.062.093 2.217.14 3.467.14 3.811 0 6.685-1.313 8.623-3.936 1.935-2.624 2.904-6.091 2.904-10.402m39.172 14.994c2.561 0 4.373-.249 5.436-.75 1.061-.499 1.592-1.467 1.592-2.905 0-1.124-.688-2.108-2.062-2.951-1.374-.844-3.467-1.795-6.278-2.858-2.188-.812-4.17-1.654-5.951-2.53-1.781-.874-3.296-1.922-4.545-3.14-1.251-1.219-2.219-2.671-2.905-4.357-.688-1.688-1.032-3.717-1.032-6.091 0-4.623 1.718-8.278 5.156-10.965 3.435-2.685 8.152-4.03 14.15-4.03 2.999 0 5.872.267 8.621.797 2.749.532 4.936 1.11 6.561 1.734l-2.437 10.87a51.67 51.67 0 0 0-5.295-1.499c-1.907-.436-4.046-.656-6.419-.656-4.374 0-6.56 1.219-6.56 3.655 0 .562.093 1.063.281 1.499.188.438.562.86 1.125 1.265.562.408 1.326.847 2.295 1.318.968.474 2.203.992 3.703 1.56 3.059 1.134 5.589 2.252 7.589 3.353 1.999 1.104 3.577 2.293 4.734 3.571 1.155 1.279 1.967 2.697 2.436 4.255.468 1.558.703 3.366.703 5.422 0 4.863-1.828 8.541-5.482 11.035-3.655 2.491-8.826 3.74-15.51 3.74-4.373 0-8.013-.375-10.917-1.125-2.906-.749-4.92-1.373-6.045-1.874l2.343-11.339a45.8 45.8 0 0 0 7.309 2.201c2.498.53 4.967.795 7.404.795m30.83-54.779l13.964-2.25v17.763h16.774v11.62h-16.774v17.338c0 2.937.516 5.279 1.545 7.028 1.031 1.75 3.108 2.623 6.233 2.623 1.499 0 3.045-.141 4.638-.422 1.594-.281 3.046-.671 4.358-1.171l1.968 10.871c-1.687.688-3.562 1.28-5.623 1.78-2.063.499-4.592.75-7.591.75-3.812 0-6.968-.517-9.466-1.547-2.499-1.031-4.498-2.467-5.997-4.311-1.5-1.843-2.547-4.077-3.139-6.701-.595-2.622-.891-5.528-.891-8.716V22.022zm57.914 14.201c4.123 0 7.559.469 10.308 1.406 2.749.938 4.951 2.282 6.608 4.03 1.653 1.75 2.826 3.874 3.513 6.372.688 2.5 1.031 5.281 1.031 8.341v29.052c-2 .438-4.779.952-8.34 1.545-3.562.594-7.872.892-12.932.892-3.188 0-6.077-.281-8.67-.844s-4.825-1.483-6.699-2.766a12.627 12.627 0 0 1-4.312-5.013c-1-2.062-1.5-4.593-1.5-7.591 0-2.873.577-5.31 1.734-7.311a13.34 13.34 0 0 1 4.638-4.779c1.938-1.186 4.155-2.046 6.655-2.576a37.444 37.444 0 0 1 7.778-.797c1.811 0 3.42.079 4.825.233 1.406.157 2.545.361 3.421.61v-1.313c0-2.374-.719-4.279-2.155-5.716-1.438-1.437-3.937-2.156-7.497-2.156-2.375 0-4.718.173-7.028.515-2.313.345-4.312.829-5.999 1.453l-1.78-11.245c.813-.25 1.828-.516 3.046-.797a54.611 54.611 0 0 1 3.982-.75 87.877 87.877 0 0 1 4.546-.562 50.135 50.135 0 0 1 4.827-.233m1.125 40.86c1.373 0 2.685-.031 3.935-.094s2.25-.156 3-.281v-10.59c-.562-.125-1.405-.248-2.53-.374a28.163 28.163 0 0 0-3.093-.188c-1.312 0-2.547.079-3.701.235-1.157.156-2.171.453-3.046.889-.876.438-1.563 1.031-2.063 1.78-.501.751-.749 1.688-.749 2.813 0 2.188.733 3.702 2.202 4.546 1.467.842 3.482 1.264 6.045 1.264m54.353-57.072c2.625 0 5.028.267 7.217.797 2.186.531 3.873 1.046 5.06 1.545l-2.718 11.153a18.303 18.303 0 0 0-4.076-1.265c-1.468-.282-2.827-.422-4.076-.422-1.687 0-3.108.234-4.264.703-1.157.468-2.063 1.11-2.717 1.921-.657.813-1.125 1.78-1.407 2.905-.281 1.125-.421 2.343-.421 3.655v2.437h17.243v11.62H480.57v31.769h-13.963V40.816c0-6.373 1.795-11.433 5.388-15.182 3.591-3.748 8.916-5.623 15.977-5.623m39.266 0c2.624 0 5.028.267 7.216.797 2.186.531 3.873 1.046 5.061 1.545l-2.719 11.153a18.246 18.246 0 0 0-4.077-1.265c-1.467-.282-2.825-.422-4.075-.422-1.688 0-3.109.234-4.264.703-1.156.468-2.062 1.11-2.718 1.921-.655.813-1.125 1.78-1.406 2.905-.28 1.125-.422 2.343-.422 3.655v2.437h17.244v11.62h-17.244v31.769h-13.963V40.816c0-6.373 1.795-11.433 5.388-15.182 3.593-3.748 8.918-5.623 15.979-5.623"/><path fill="#9FE038" d="M117.461 55.361l-14.265-24.866-2.958-5.163c-1.243-2.172-.491-4.941 1.68-6.184s2.924-4.012 1.68-6.183l-6.12-10.686A4.527 4.527 0 0 0 91.291.602l-23.573 13.53a4.531 4.531 0 0 0-2.252 4.384l.368 3.64.392 3.872a2.455 2.455 0 0 0 1.941 2.151C75.178 29.671 81.55 34 85.438 40.666l.107.177c3.877 6.768 4.412 14.534 2.131 21.397a2.454 2.454 0 0 0 .872 2.762l3.93 2.807 3.1 2.213a4.53 4.53 0 0 0 4.922.277l15.279-8.751a4.533 4.533 0 0 0 1.682-6.187"/><path fill="#27C61A" d="M57.954 13.485L42.723 4.651a4.53 4.53 0 0 0-6.197 1.644l-14.365 24.81-2.986 5.147a4.53 4.53 0 0 1-6.193 1.645 4.531 4.531 0 0 0-6.191 1.647L.612 50.195a4.531 4.531 0 0 0 1.651 6.195l23.524 13.616a4.54 4.54 0 0 0 4.923-.25l2.605-1.885 3.514-2.539a2.457 2.457 0 0 0 .887-2.759c-2.223-6.813-1.672-14.496 2.148-21.201l.098-.182c3.914-6.748 10.366-11.103 17.447-12.57a2.457 2.457 0 0 0 1.953-2.14l.411-4.31.409-4.289a4.534 4.534 0 0 0-2.228-4.396"/><path fill="#009245" d="M94.449 78.503a4.535 4.535 0 0 0-2.687-4.135l-2.432-1.084-4.463-1.99a2.431 2.431 0 0 0-.99-.211c-.687 0-1.361.291-1.841.828-4.779 5.342-11.703 8.72-19.419 8.779l-.207.006c-7.8 0-14.804-3.396-19.626-8.785a2.466 2.466 0 0 0-1.84-.828c-.333 0-.67.068-.99.211l-3.718 1.709-4.131 1.897a4.532 4.532 0 0 0-2.687 4.133v17.609a4.53 4.53 0 0 0 4.531 4.533l28.668-.02h5.951a4.53 4.53 0 0 1 4.53 4.531 4.53 4.53 0 0 0 4.531 4.53h12.314a4.53 4.53 0 0 0 4.53-4.535l-.024-27.178z"/></svg>